<svg class="logodachiri" width="60" height="22" viewBox="0 0 60 22" fill="none" xmlns="http://www.w3.org/2000/svg">
            <path d="M26.1599 9.86271H24.3567V15.9349H22.2734V9.86271H21.1259V8.85864L22.2734 8.29854V7.73845C22.2734 6.86871 22.4874 6.23348 22.9155 5.83277C23.3435 5.43205 24.0288 5.23169 24.9714 5.23169C25.6909 5.23169 26.3307 5.3387 26.8908 5.55272L26.358 7.08273C25.9391 6.95068 25.552 6.88465 25.1968 6.88465C24.9008 6.88465 24.6868 6.97344 24.5548 7.15103C24.4227 7.32407 24.3567 7.5472 24.3567 7.82041V8.29854H26.1599V9.86271Z" fill="#2F2E41"/>
            <path d="M32.1889 15.9349L31.9088 14.9582H31.7996C31.5764 15.3134 31.26 15.5889 30.8501 15.7847C30.4403 15.9759 29.9736 16.0715 29.4499 16.0715C28.5528 16.0715 27.8766 15.8325 27.4213 15.3544C26.9659 14.8717 26.7382 14.1795 26.7382 13.2779V8.29854H28.8215V12.7588C28.8215 13.3098 28.9194 13.7242 29.1152 14.0019C29.311 14.2751 29.6229 14.4118 30.051 14.4118C30.6338 14.4118 31.055 14.2182 31.3146 13.8312C31.5742 13.4396 31.7039 12.7929 31.7039 11.8913V8.29854H33.7872V15.9349H32.1889Z" fill="#2F2E41"/>
            <path d="M40.7178 13.6672C40.7178 14.4505 40.4446 15.047 39.8981 15.4568C39.3563 15.8666 38.5434 16.0715 37.4597 16.0715C36.9041 16.0715 36.4306 16.0328 36.039 15.9554C35.6474 15.8826 35.2808 15.7733 34.9393 15.6276V13.9063C35.3263 14.0885 35.7612 14.241 36.2439 14.3639C36.7311 14.4869 37.1591 14.5484 37.528 14.5484C38.2839 14.5484 38.6618 14.3298 38.6618 13.8926C38.6618 13.7287 38.6117 13.5967 38.5116 13.4965C38.4114 13.3917 38.2384 13.2756 37.9925 13.1481C37.7466 13.0161 37.4187 12.8635 37.0089 12.6905C36.4215 12.4446 35.9889 12.2169 35.7111 12.0075C35.4379 11.798 35.2375 11.5589 35.11 11.2903C34.9871 11.017 34.9256 10.6824 34.9256 10.2862C34.9256 9.6077 35.1874 9.08404 35.7111 8.7152C36.2393 8.3418 36.9861 8.1551 37.9515 8.1551C38.8713 8.1551 39.7661 8.35546 40.6358 8.75618L40.0074 10.2589C39.6249 10.0949 39.2675 9.96061 38.9351 9.85587C38.6026 9.75114 38.2634 9.69878 37.9173 9.69878C37.3026 9.69878 36.9952 9.86498 36.9952 10.1974C36.9952 10.3841 37.0931 10.5457 37.2889 10.6824C37.4893 10.819 37.9242 11.0216 38.5935 11.2903C39.1901 11.5316 39.6272 11.757 39.905 11.9665C40.1827 12.1759 40.3877 12.4173 40.5197 12.6905C40.6518 12.9637 40.7178 13.2893 40.7178 13.6672Z" fill="#2F2E41"/>
            <path d="M44.923 9.6373C44.4813 9.6373 44.1353 9.77846 43.8848 10.0608C43.6344 10.3386 43.4909 10.7347 43.4545 11.2493H46.3779C46.3688 10.7347 46.2345 10.3386 45.9749 10.0608C45.7154 9.77846 45.3647 9.6373 44.923 9.6373ZM45.2168 16.0715C43.9873 16.0715 43.0265 15.7323 42.3343 15.0538C41.6422 14.3753 41.2961 13.4145 41.2961 12.1714C41.2961 10.8918 41.6149 9.90369 42.2524 9.20699C42.8944 8.50573 43.7801 8.1551 44.9094 8.1551C45.9886 8.1551 46.8287 8.46247 47.4298 9.07721C48.0309 9.69194 48.3314 10.5412 48.3314 11.625V12.6359H43.4067C43.4295 13.2278 43.6048 13.69 43.9326 14.0224C44.2605 14.3548 44.7204 14.521 45.3124 14.521C45.7723 14.521 46.2072 14.4732 46.617 14.3776C47.0268 14.282 47.4548 14.1294 47.9011 13.92V15.5319C47.5368 15.7141 47.1475 15.8484 46.7331 15.9349C46.3187 16.026 45.8133 16.0715 45.2168 16.0715Z" fill="#2F2E41"/>
            <path d="M51.5258 15.9349H49.4425V5.30682H51.5258V15.9349Z" fill="#2F2E41"/>
            <path d="M52.0426 8.29854H54.324L55.7652 12.5949C55.8881 12.9683 55.9724 13.41 56.0179 13.92H56.0589C56.109 13.4509 56.2069 13.0092 56.3526 12.5949L57.7665 8.29854H60L56.7692 16.9117C56.4733 17.7086 56.0498 18.3051 55.4988 18.7013C54.9524 19.0974 54.3126 19.2955 53.5794 19.2955C53.2197 19.2955 52.8668 19.2568 52.5207 19.1794V17.5264C52.7712 17.5856 53.0444 17.6152 53.3404 17.6152C53.7092 17.6152 54.0303 17.5014 54.3035 17.2737C54.5812 17.0506 54.7975 16.7113 54.9524 16.256L55.0753 15.8803L52.0426 8.29854Z" fill="#2F2E41"/>
            <path d="M8.38624 0.569197C7.48034 0.569429 6.61162 0.885947 5.97104 1.44917C5.33048 2.01239 4.9705 2.77622 4.97023 3.57274V4.93719H3.4184C2.96948 4.93686 2.52488 5.01437 2.11006 5.16528C1.69524 5.31618 1.31833 5.53754 1.00091 5.81666C0.683476 6.09576 0.431756 6.42718 0.260147 6.79191C0.0885383 7.15666 0.000408968 7.54758 0.000801443 7.9423V10.9448H4.96943V13.6737H3.4176C2.51144 13.6736 1.64234 13.99 1.00144 14.5532C0.360538 15.1165 0.000316538 15.8804 0 16.6772V21.8663H3.4192C3.8677 21.8661 4.31175 21.7883 4.72603 21.6371C5.14029 21.486 5.51663 21.2646 5.8336 20.9857C6.15055 20.7067 6.40189 20.3755 6.57328 20.011C6.74465 19.6465 6.83271 19.2561 6.83242 18.8618H6.83679V16.8794L6.82765 16.8804V4.25059L6.83521 4.25216V3.57326C6.83599 3.21126 6.99961 2.86422 7.29035 2.6079C7.58107 2.35158 7.97532 2.2068 8.38704 2.20513H14.3216V3.57326C14.3203 3.9351 14.1561 4.28177 13.865 4.53746C13.5738 4.79315 13.1793 4.93707 12.7678 4.93771H7.53752V6.5754H12.767C13.6729 6.57545 14.5417 6.25909 15.1823 5.69592C15.8229 5.13274 16.1829 4.3689 16.183 3.57239V0.568848L8.38624 0.569197ZM4.97023 9.30691H1.86538V7.94246C1.86606 7.58004 2.02987 7.23259 2.32103 6.97603C2.61218 6.71948 3.007 6.57468 3.4192 6.5733H4.97103L4.97023 9.30691ZM4.97023 18.8633C4.96955 19.2251 4.80588 19.572 4.51505 19.8279C4.22422 20.0839 3.8299 20.2282 3.4184 20.2291H1.86458V16.6781C1.86495 16.316 2.02885 15.9689 2.32021 15.713C2.6116 15.4572 3.00659 15.3135 3.4184 15.3136H4.97023V18.8633ZM7.53752 10.9446H11.4569V12.3105C11.4554 12.6722 11.2911 13.0188 11 13.2744C10.7088 13.5301 10.3145 13.674 9.90305 13.6749H7.53752V15.3136H9.90385C10.3525 15.3139 10.7968 15.2363 11.2114 15.0854C11.6259 14.9346 12.0026 14.7133 12.3198 14.4344C12.6371 14.1554 12.8887 13.8242 13.0603 13.4598C13.2319 13.0953 13.3201 12.7046 13.3199 12.3101H13.3214V9.30657H7.53752V10.9446Z" fill="#6C63FF"/>
        </svg>